<svg width="102" height="76" viewBox="0 0 102 76" fill="none" xmlns="http://www.w3.org/2000/svg">
<path d="M4.27859 15.15C3.59859 15.15 2.98359 14.975 2.43359 14.625C1.89359 14.275 1.46859 13.79 1.15859 13.17C0.848594 12.54 0.693594 11.825 0.693594 11.025C0.693594 10.225 0.848594 9.515 1.15859 8.895C1.46859 8.265 1.89359 7.77 2.43359 7.41C2.98359 7.05 3.60359 6.87 4.29359 6.87C4.65359 6.87 4.99859 6.925 5.32859 7.035C5.66859 7.145 5.96859 7.295 6.22859 7.485C6.49859 7.675 6.71859 7.89 6.88859 8.13C7.05859 8.37 7.16359 8.625 7.20359 8.895L6.61859 9.03V3.9H9.03359V15H6.78359L6.64859 13.2L7.12859 13.29C7.10859 13.53 7.01859 13.765 6.85859 13.995C6.69859 14.215 6.48359 14.415 6.21359 14.595C5.95359 14.765 5.65859 14.9 5.32859 15C4.99859 15.1 4.64859 15.15 4.27859 15.15ZM4.87859 13.155C5.24859 13.155 5.56359 13.07 5.82359 12.9C6.09359 12.72 6.30359 12.47 6.45359 12.15C6.60359 11.83 6.67859 11.455 6.67859 11.025C6.67859 10.585 6.60359 10.205 6.45359 9.885C6.30359 9.565 6.09359 9.32 5.82359 9.15C5.56359 8.97 5.24859 8.88 4.87859 8.88C4.51859 8.88 4.20359 8.97 3.93359 9.15C3.67359 9.32 3.46859 9.565 3.31859 9.885C3.16859 10.205 3.09359 10.585 3.09359 11.025C3.09359 11.455 3.16859 11.83 3.31859 12.15C3.46859 12.47 3.67359 12.72 3.93359 12.9C4.20359 13.07 4.51859 13.155 4.87859 13.155ZM17.423 13.125V11.25H15.548V5.625H17.423V3.75H26.798V5.625H28.673V9.375H19.298V11.25H26.798V13.125H17.423ZM19.298 7.5H24.923V5.625H19.298V7.5ZM56.6773 15.271C56.0035 15.271 55.3321 15.2173 54.6632 15.1099C53.9942 15.0073 53.3839 14.8169 52.8321 14.5386C52.2804 14.2603 51.8385 13.8696 51.5064 13.3667C51.1744 12.8589 51.0084 12.2021 51.0084 11.3965C51.0084 10.3662 51.2672 9.54102 51.7848 8.9209C52.3072 8.30078 53.025 7.854 53.9381 7.58057C54.8561 7.30225 55.9083 7.16309 57.0948 7.16309C58.1349 7.16309 59.065 7.31934 59.8854 7.63184C60.7057 7.93945 61.3502 8.39111 61.8189 8.98682C62.2926 9.57764 62.5294 10.2979 62.5294 11.1475C62.5294 11.8604 62.4098 12.4634 62.1705 12.9565C61.9361 13.4448 61.6163 13.8428 61.211 14.1504C60.8106 14.4531 60.3565 14.6875 59.8487 14.8535C59.3458 15.0146 58.8209 15.1245 58.274 15.1831C57.7271 15.2417 57.1949 15.271 56.6773 15.271ZM56.7945 13.2715C57.4049 13.2715 57.8517 13.0713 58.1349 12.6709C58.423 12.2656 58.567 11.7676 58.567 11.1768C58.567 10.6641 58.4107 10.2295 58.0982 9.87305C57.7906 9.5166 57.3438 9.33838 56.7579 9.33838C56.3575 9.33838 56.0328 9.43848 55.7838 9.63867C55.5348 9.83887 55.3517 10.0928 55.2345 10.4004C55.1222 10.7031 55.066 11.0156 55.066 11.3379C55.066 11.9531 55.2052 12.4292 55.4835 12.7661C55.7667 13.103 56.2037 13.2715 56.7945 13.2715ZM71.2917 15.045C71.2017 15.045 71.1317 15.035 71.0817 15.015H70.8117H70.5867H70.4817L69.9117 14.88L69.8667 14.775V14.625L69.8517 14.22C69.8317 14.04 69.8217 13.885 69.8217 13.755L69.8067 12.615C69.7967 12.505 69.7917 12.355 69.7917 12.165C69.7917 11.705 69.8067 11.26 69.8367 10.83C69.8567 10.55 69.8667 10.1 69.8667 9.48C69.8667 9.38 69.8567 9.295 69.8367 9.225V9.075L69.8217 8.985C69.8217 8.755 69.8367 8.53 69.8667 8.31L69.8817 7.515L69.8667 7.155V6.81C69.8367 6.78 69.8217 6.745 69.8217 6.705C69.8217 6.555 69.9417 6.445 70.1817 6.375C70.3217 6.335 70.4967 6.315 70.7067 6.315H72.8967L73.9167 6.33C73.9167 6.33 73.9217 6.335 73.9317 6.345C73.9517 6.355 73.9717 6.37 73.9917 6.39C74.0717 6.47 74.1517 6.575 74.2317 6.705C74.3217 6.855 74.3967 7.015 74.4567 7.185C74.5267 7.385 74.6617 7.735 74.8617 8.235C75.0217 8.645 75.1567 8.97 75.2667 9.21C75.3467 9.47 75.4367 9.6 75.5367 9.6C75.6267 9.6 75.6967 9.535 75.7467 9.405C75.7667 9.385 75.7967 9.32 75.8367 9.21L76.0767 8.655C76.0967 8.615 76.1667 8.465 76.2867 8.205C76.3167 8.155 76.4017 7.975 76.5417 7.665L76.7667 7.185C76.7867 7.125 76.8167 7.05 76.8567 6.96C76.8967 6.87 76.9417 6.785 76.9917 6.705C77.0917 6.545 77.1717 6.44 77.2317 6.39C77.2517 6.35 77.2817 6.33 77.3217 6.33L78.3417 6.315H80.5167H80.6967H80.8317H81.0117C81.0517 6.325 81.1417 6.33 81.2817 6.33C81.2917 6.33 81.3117 6.395 81.3417 6.525C81.3717 7.035 81.3867 7.445 81.3867 7.755C81.4067 8.135 81.4167 8.71 81.4167 9.48V10.23C81.4167 10.68 81.3767 11.325 81.2967 12.165V12.615C81.3067 12.745 81.3117 12.925 81.3117 13.155L81.3267 13.785C81.3367 13.905 81.3417 14.065 81.3417 14.265C81.3417 14.445 81.3467 14.565 81.3567 14.625V14.775L81.3117 14.88L80.7417 15.015H80.6217H80.4117H80.1567C80.0967 15.035 80.0217 15.045 79.9317 15.045C79.5417 15.045 79.1417 15.03 78.7317 15C78.3217 14.96 78.0667 14.935 77.9667 14.925L77.9067 14.94H77.8317C77.7717 14.94 77.7417 14.845 77.7417 14.655C77.6917 14.395 77.6667 13.82 77.6667 12.93C77.6467 12.68 77.6367 12.34 77.6367 11.91C77.6367 11.84 77.6017 11.805 77.5317 11.805C77.5017 11.805 77.4717 11.845 77.4417 11.925C77.2917 12.285 77.2017 12.51 77.1717 12.6L77.0667 12.915L76.9467 13.155C76.7667 13.555 76.5717 13.865 76.3617 14.085C76.2317 14.215 76.0967 14.28 75.9567 14.28H75.7617H75.4917C75.3617 14.28 75.2667 14.275 75.2067 14.265C75.0967 14.265 75.0167 14.26 74.9667 14.25C74.6167 13.71 74.2917 13.115 73.9917 12.465C73.9517 12.345 73.9117 12.245 73.8717 12.165C73.8417 12.085 73.8167 12.015 73.7967 11.955C73.7267 11.855 73.6917 11.805 73.6917 11.805C73.6217 11.805 73.5867 11.84 73.5867 11.91V12.51C73.5867 13.12 73.5817 13.56 73.5717 13.83C73.5717 14.26 73.5417 14.58 73.4817 14.79C73.4717 14.83 73.4567 14.865 73.4367 14.895C73.4267 14.925 73.4117 14.94 73.3917 14.94H73.3167L73.2567 14.925C73.1667 14.935 72.9167 14.96 72.5067 15C72.1067 15.03 71.7017 15.045 71.2917 15.045ZM93.4414 1.875V0H97.1914V1.875H93.4414ZM89.6914 13.125V11.25H93.4414V5.625H91.5664V3.75H97.1914V11.25H100.941V13.125H89.6914ZM0.996582 45V35.625H2.87158V37.5H4.74658V39.375H6.62158V41.25H8.49658V35.625H10.3716V45H8.49658V43.125H6.62158V41.25H4.74658V39.375H2.87158V45H0.996582ZM23.2971 45.2856C22.7502 45.2856 22.2033 45.2124 21.6564 45.0659C21.1096 44.9243 20.6091 44.7021 20.155 44.3994C19.7058 44.0918 19.3444 43.7012 19.071 43.2275C18.8024 42.749 18.6682 42.1777 18.6682 41.5137C18.6682 40.5811 18.8781 39.7998 19.298 39.1699C19.7229 38.5352 20.2771 38.0566 20.9606 37.7344C21.6491 37.4121 22.3889 37.251 23.1799 37.251C23.9953 37.251 24.6789 37.3486 25.2307 37.5439C25.7873 37.7344 26.2805 38.1055 26.7102 38.6572L26.7248 37.0972L30.0354 37.3755L30.0134 44.8389L27.2595 45.0439L26.8127 43.6011C26.5295 44.0601 26.0998 44.4556 25.5236 44.7876C24.9475 45.1196 24.2053 45.2856 23.2971 45.2856ZM24.5422 43.0664C25.6506 43.042 26.2048 42.4658 26.2048 41.3379C26.2048 40.874 26.0632 40.4858 25.78 40.1733C25.4968 39.856 25.1013 39.6973 24.5935 39.6973C24.0612 39.6973 23.6535 39.8779 23.3703 40.2393C23.092 40.6006 22.9528 41.0278 22.9528 41.521C22.9528 42.063 23.114 42.4561 23.4362 42.7002C23.7585 42.9443 24.1271 43.0664 24.5422 43.0664ZM42.4188 43.125V35.625H38.6688V33.75H42.4188V30H46.1688V33.75H49.9188V35.625H46.1688V43.125H42.4188ZM61.8888 35.34C61.8888 35.05 61.9888 34.805 62.1888 34.605C62.3988 34.395 62.6488 34.29 62.9388 34.29C63.2288 34.29 63.4738 34.395 63.6738 34.605C63.8838 34.805 63.9888 35.05 63.9888 35.34C63.9888 35.63 63.8838 35.88 63.6738 36.09C63.4738 36.29 63.2288 36.39 62.9388 36.39C62.6488 36.39 62.3988 36.29 62.1888 36.09C61.9888 35.88 61.8888 35.63 61.8888 35.34ZM61.6488 38.865C61.6688 38.765 61.6538 38.68 61.6038 38.61C61.5638 38.53 61.4888 38.49 61.3788 38.49C61.2988 38.49 61.2238 38.51 61.1538 38.55L59.3988 39.75L58.7988 38.865L60.5688 37.665C60.8788 37.455 61.2138 37.35 61.5738 37.35C61.9138 37.35 62.2088 37.45 62.4588 37.65C62.7088 37.85 62.8338 38.16 62.8338 38.58C62.8338 38.74 62.8138 38.9 62.7738 39.06L61.6638 43.695C61.6338 43.815 61.6438 43.91 61.6938 43.98C61.7538 44.05 61.8288 44.085 61.9188 44.085C61.9888 44.085 62.0638 44.06 62.1438 44.01L63.8688 42.84L64.4688 43.725L62.7438 44.895C62.4238 45.105 62.0888 45.21 61.7388 45.21C61.3988 45.21 61.1038 45.11 60.8538 44.91C60.6038 44.71 60.4788 44.4 60.4788 43.98C60.4788 43.82 60.4988 43.66 60.5388 43.5L61.6488 38.865ZM75.8284 45V43.125H73.9534V37.5H75.8284V35.625H79.5784V37.5H81.4534V43.125H79.5784V45H75.8284ZM75.8284 43.05H79.5784V37.575H75.8284V43.05ZM88.8784 43.125V33.75H100.128V35.625H102.003V43.125H98.2534V35.625H92.6284V43.125H88.8784ZM49.9225 75.432C49.2265 75.432 48.4705 75.3 47.6545 75.036C46.8385 74.772 46.0465 74.388 45.2785 73.884C44.5345 73.356 43.8985 72.696 43.3705 71.904L46.6825 69.168C47.3305 69.912 47.9545 70.452 48.5545 70.788C49.1785 71.1 49.7545 71.256 50.2825 71.256C50.8345 71.256 51.3025 71.148 51.6865 70.932C52.0945 70.692 52.2985 70.392 52.2985 70.032C52.2985 69.552 52.0225 69.168 51.4705 68.88C50.9425 68.592 50.2105 68.184 49.2745 67.656C48.3865 67.152 47.5825 66.48 46.8625 65.64C46.1665 64.8 45.8185 63.792 45.8185 62.616C45.8185 61.464 46.1425 60.432 46.7905 59.52C47.4385 58.608 48.3145 57.888 49.4185 57.36C50.5225 56.832 51.7465 56.568 53.0905 56.568C54.3865 56.568 55.5385 56.856 56.5465 57.432C57.5785 57.984 58.4665 58.656 59.2105 59.448L56.1145 62.4C55.6825 61.968 55.2145 61.596 54.7105 61.284C54.2065 60.972 53.6665 60.816 53.0905 60.816C52.5145 60.816 52.0585 60.948 51.7225 61.212C51.3865 61.452 51.2185 61.752 51.2185 62.112C51.2185 62.616 51.5305 63.012 52.1545 63.3C52.7785 63.588 53.4265 63.936 54.0985 64.344C54.6745 64.656 55.2385 65.04 55.7905 65.496C56.3425 65.928 56.7985 66.468 57.1585 67.116C57.5185 67.74 57.6985 68.496 57.6985 69.384C57.6985 70.584 57.3625 71.64 56.6905 72.552C56.0425 73.464 55.1305 74.172 53.9545 74.676C52.7785 75.18 51.4345 75.432 49.9225 75.432Z" fill="url(#paint0_radial_22_861)"/>
<path d="M37.538 11.535C37.438 11.535 37.388 11.485 37.388 11.385C37.388 11.285 37.438 11.235 37.538 11.235C37.638 11.235 37.688 11.285 37.688 11.385C37.688 11.485 37.638 11.535 37.538 11.535ZM37.538 12.135C37.438 12.135 37.388 12.085 37.388 11.985C37.388 11.885 37.438 11.835 37.538 11.835C37.638 11.835 37.688 11.885 37.688 11.985C37.688 12.085 37.638 12.135 37.538 12.135ZM37.538 12.735C37.438 12.735 37.388 12.685 37.388 12.585C37.388 12.485 37.438 12.435 37.538 12.435C37.638 12.435 37.688 12.485 37.688 12.585C37.688 12.685 37.638 12.735 37.538 12.735ZM37.538 13.305C37.438 13.305 37.388 13.255 37.388 13.155C37.388 13.055 37.438 13.005 37.538 13.005C37.638 13.005 37.688 13.055 37.688 13.155C37.688 13.255 37.638 13.305 37.538 13.305ZM37.538 13.935C37.438 13.935 37.388 13.885 37.388 13.785C37.388 13.685 37.438 13.635 37.538 13.635C37.638 13.635 37.688 13.685 37.688 13.785C37.688 13.885 37.638 13.935 37.538 13.935ZM37.538 14.475C37.438 14.475 37.388 14.425 37.388 14.325C37.388 14.225 37.438 14.175 37.538 14.175C37.638 14.175 37.688 14.225 37.688 14.325C37.688 14.425 37.638 14.475 37.538 14.475ZM37.538 15C37.438 15 37.388 14.95 37.388 14.85C37.388 14.75 37.438 14.7 37.538 14.7C37.638 14.7 37.688 14.75 37.688 14.85C37.688 14.95 37.638 15 37.538 15ZM37.538 7.5C37.438 7.5 37.388 7.45 37.388 7.35C37.388 7.25 37.438 7.2 37.538 7.2C37.638 7.2 37.688 7.25 37.688 7.35C37.688 7.45 37.638 7.5 37.538 7.5ZM37.538 9.195C37.438 9.195 37.388 9.145 37.388 9.045C37.388 8.945 37.438 8.895 37.538 8.895C37.638 8.895 37.688 8.945 37.688 9.045C37.688 9.145 37.638 9.195 37.538 9.195ZM37.538 9.75C37.438 9.75 37.388 9.7 37.388 9.6C37.388 9.5 37.438 9.45 37.538 9.45C37.638 9.45 37.688 9.5 37.688 9.6C37.688 9.7 37.638 9.75 37.538 9.75ZM37.538 10.32C37.438 10.32 37.388 10.27 37.388 10.17C37.388 10.07 37.438 10.02 37.538 10.02C37.638 10.02 37.688 10.07 37.688 10.17C37.688 10.27 37.638 10.32 37.538 10.32ZM37.538 10.92C37.438 10.92 37.388 10.87 37.388 10.77C37.388 10.67 37.438 10.62 37.538 10.62C37.638 10.62 37.688 10.67 37.688 10.77C37.688 10.87 37.638 10.92 37.538 10.92ZM37.538 8.655C37.438 8.655 37.388 8.605 37.388 8.505C37.388 8.405 37.438 8.355 37.538 8.355C37.638 8.355 37.688 8.405 37.688 8.505C37.688 8.605 37.638 8.655 37.538 8.655ZM37.538 8.055C37.438 8.055 37.388 8.005 37.388 7.905C37.388 7.805 37.438 7.755 37.538 7.755C37.638 7.755 37.688 7.805 37.688 7.905C37.688 8.005 37.638 8.055 37.538 8.055ZM43.253 11.535C43.153 11.535 43.103 11.485 43.103 11.385C43.103 11.285 43.153 11.235 43.253 11.235C43.353 11.235 43.403 11.285 43.403 11.385C43.403 11.485 43.353 11.535 43.253 11.535ZM43.253 12.135C43.153 12.135 43.103 12.085 43.103 11.985C43.103 11.885 43.153 11.835 43.253 11.835C43.353 11.835 43.403 11.885 43.403 11.985C43.403 12.085 43.353 12.135 43.253 12.135ZM43.253 12.735C43.153 12.735 43.103 12.685 43.103 12.585C43.103 12.485 43.153 12.435 43.253 12.435C43.353 12.435 43.403 12.485 43.403 12.585C43.403 12.685 43.353 12.735 43.253 12.735ZM43.253 13.305C43.153 13.305 43.103 13.255 43.103 13.155C43.103 13.055 43.153 13.005 43.253 13.005C43.353 13.005 43.403 13.055 43.403 13.155C43.403 13.255 43.353 13.305 43.253 13.305ZM43.253 13.935C43.153 13.935 43.103 13.885 43.103 13.785C43.103 13.685 43.153 13.635 43.253 13.635C43.353 13.635 43.403 13.685 43.403 13.785C43.403 13.885 43.353 13.935 43.253 13.935ZM43.253 14.475C43.153 14.475 43.103 14.425 43.103 14.325C43.103 14.225 43.153 14.175 43.253 14.175C43.353 14.175 43.403 14.225 43.403 14.325C43.403 14.425 43.353 14.475 43.253 14.475ZM43.253 15C43.153 15 43.103 14.95 43.103 14.85C43.103 14.75 43.153 14.7 43.253 14.7C43.353 14.7 43.403 14.75 43.403 14.85C43.403 14.95 43.353 15 43.253 15ZM40.538 7.515C40.438 7.515 40.388 7.465 40.388 7.365C40.388 7.265 40.438 7.215 40.538 7.215C40.638 7.215 40.688 7.265 40.688 7.365C40.688 7.465 40.638 7.515 40.538 7.515ZM41.213 7.455C41.113 7.455 41.063 7.405 41.063 7.305C41.063 7.205 41.113 7.155 41.213 7.155C41.313 7.155 41.363 7.205 41.363 7.305C41.363 7.405 41.313 7.455 41.213 7.455ZM41.858 7.59C41.758 7.59 41.708 7.54 41.708 7.44C41.708 7.34 41.758 7.29 41.858 7.29C41.958 7.29 42.008 7.34 42.008 7.44C42.008 7.54 41.958 7.59 41.858 7.59ZM42.443 7.935C42.343 7.935 42.293 7.885 42.293 7.785C42.293 7.685 42.343 7.635 42.443 7.635C42.543 7.635 42.593 7.685 42.593 7.785C42.593 7.885 42.543 7.935 42.443 7.935ZM42.773 8.355C42.673 8.355 42.623 8.305 42.623 8.205C42.623 8.105 42.673 8.055 42.773 8.055C42.873 8.055 42.923 8.105 42.923 8.205C42.923 8.305 42.873 8.355 42.773 8.355ZM43.103 9.39C43.003 9.39 42.953 9.34 42.953 9.24C42.953 9.14 43.003 9.09 43.103 9.09C43.203 9.09 43.253 9.14 43.253 9.24C43.253 9.34 43.203 9.39 43.103 9.39ZM43.178 9.945C43.078 9.945 43.028 9.895 43.028 9.795C43.028 9.695 43.078 9.645 43.178 9.645C43.278 9.645 43.328 9.695 43.328 9.795C43.328 9.895 43.278 9.945 43.178 9.945ZM42.983 8.865C42.883 8.865 42.833 8.815 42.833 8.715C42.833 8.615 42.883 8.565 42.983 8.565C43.083 8.565 43.133 8.615 43.133 8.715C43.133 8.815 43.083 8.865 42.983 8.865ZM43.253 10.515C43.153 10.515 43.103 10.465 43.103 10.365C43.103 10.265 43.153 10.215 43.253 10.215C43.353 10.215 43.403 10.265 43.403 10.365C43.403 10.465 43.353 10.515 43.253 10.515ZM39.893 7.74C39.793 7.74 39.743 7.69 39.743 7.59C39.743 7.49 39.793 7.44 39.893 7.44C39.993 7.44 40.043 7.49 40.043 7.59C40.043 7.69 39.993 7.74 39.893 7.74ZM43.253 10.98C43.153 10.98 43.103 10.93 43.103 10.83C43.103 10.73 43.153 10.68 43.253 10.68C43.353 10.68 43.403 10.73 43.403 10.83C43.403 10.93 43.353 10.98 43.253 10.98ZM39.308 8.01C39.208 8.01 39.158 7.96 39.158 7.86C39.158 7.76 39.208 7.71 39.308 7.71C39.408 7.71 39.458 7.76 39.458 7.86C39.458 7.96 39.408 8.01 39.308 8.01ZM38.798 8.4C38.698 8.4 38.648 8.35 38.648 8.25C38.648 8.15 38.698 8.1 38.798 8.1C38.898 8.1 38.948 8.15 38.948 8.25C38.948 8.35 38.898 8.4 38.798 8.4ZM38.378 8.88C38.278 8.88 38.228 8.83 38.228 8.73C38.228 8.63 38.278 8.58 38.378 8.58C38.478 8.58 38.528 8.63 38.528 8.73C38.528 8.83 38.478 8.88 38.378 8.88ZM38.003 9.405C37.903 9.405 37.853 9.355 37.853 9.255C37.853 9.155 37.903 9.105 38.003 9.105C38.103 9.105 38.153 9.155 38.153 9.255C38.153 9.355 38.103 9.405 38.003 9.405Z" fill="url(#paint1_radial_22_861)"/>
<path d="M37.538 11.535C37.438 11.535 37.388 11.485 37.388 11.385C37.388 11.285 37.438 11.235 37.538 11.235C37.638 11.235 37.688 11.285 37.688 11.385C37.688 11.485 37.638 11.535 37.538 11.535ZM37.538 12.135C37.438 12.135 37.388 12.085 37.388 11.985C37.388 11.885 37.438 11.835 37.538 11.835C37.638 11.835 37.688 11.885 37.688 11.985C37.688 12.085 37.638 12.135 37.538 12.135ZM37.538 12.735C37.438 12.735 37.388 12.685 37.388 12.585C37.388 12.485 37.438 12.435 37.538 12.435C37.638 12.435 37.688 12.485 37.688 12.585C37.688 12.685 37.638 12.735 37.538 12.735ZM37.538 13.305C37.438 13.305 37.388 13.255 37.388 13.155C37.388 13.055 37.438 13.005 37.538 13.005C37.638 13.005 37.688 13.055 37.688 13.155C37.688 13.255 37.638 13.305 37.538 13.305ZM37.538 13.935C37.438 13.935 37.388 13.885 37.388 13.785C37.388 13.685 37.438 13.635 37.538 13.635C37.638 13.635 37.688 13.685 37.688 13.785C37.688 13.885 37.638 13.935 37.538 13.935ZM37.538 14.475C37.438 14.475 37.388 14.425 37.388 14.325C37.388 14.225 37.438 14.175 37.538 14.175C37.638 14.175 37.688 14.225 37.688 14.325C37.688 14.425 37.638 14.475 37.538 14.475ZM37.538 15C37.438 15 37.388 14.95 37.388 14.85C37.388 14.75 37.438 14.7 37.538 14.7C37.638 14.7 37.688 14.75 37.688 14.85C37.688 14.95 37.638 15 37.538 15ZM37.538 7.5C37.438 7.5 37.388 7.45 37.388 7.35C37.388 7.25 37.438 7.2 37.538 7.2C37.638 7.2 37.688 7.25 37.688 7.35C37.688 7.45 37.638 7.5 37.538 7.5ZM37.538 9.195C37.438 9.195 37.388 9.145 37.388 9.045C37.388 8.945 37.438 8.895 37.538 8.895C37.638 8.895 37.688 8.945 37.688 9.045C37.688 9.145 37.638 9.195 37.538 9.195ZM37.538 9.75C37.438 9.75 37.388 9.7 37.388 9.6C37.388 9.5 37.438 9.45 37.538 9.45C37.638 9.45 37.688 9.5 37.688 9.6C37.688 9.7 37.638 9.75 37.538 9.75ZM37.538 10.32C37.438 10.32 37.388 10.27 37.388 10.17C37.388 10.07 37.438 10.02 37.538 10.02C37.638 10.02 37.688 10.07 37.688 10.17C37.688 10.27 37.638 10.32 37.538 10.32ZM37.538 10.92C37.438 10.92 37.388 10.87 37.388 10.77C37.388 10.67 37.438 10.62 37.538 10.62C37.638 10.62 37.688 10.67 37.688 10.77C37.688 10.87 37.638 10.92 37.538 10.92ZM37.538 8.655C37.438 8.655 37.388 8.605 37.388 8.505C37.388 8.405 37.438 8.355 37.538 8.355C37.638 8.355 37.688 8.405 37.688 8.505C37.688 8.605 37.638 8.655 37.538 8.655ZM37.538 8.055C37.438 8.055 37.388 8.005 37.388 7.905C37.388 7.805 37.438 7.755 37.538 7.755C37.638 7.755 37.688 7.805 37.688 7.905C37.688 8.005 37.638 8.055 37.538 8.055ZM43.253 11.535C43.153 11.535 43.103 11.485 43.103 11.385C43.103 11.285 43.153 11.235 43.253 11.235C43.353 11.235 43.403 11.285 43.403 11.385C43.403 11.485 43.353 11.535 43.253 11.535ZM43.253 12.135C43.153 12.135 43.103 12.085 43.103 11.985C43.103 11.885 43.153 11.835 43.253 11.835C43.353 11.835 43.403 11.885 43.403 11.985C43.403 12.085 43.353 12.135 43.253 12.135ZM43.253 12.735C43.153 12.735 43.103 12.685 43.103 12.585C43.103 12.485 43.153 12.435 43.253 12.435C43.353 12.435 43.403 12.485 43.403 12.585C43.403 12.685 43.353 12.735 43.253 12.735ZM43.253 13.305C43.153 13.305 43.103 13.255 43.103 13.155C43.103 13.055 43.153 13.005 43.253 13.005C43.353 13.005 43.403 13.055 43.403 13.155C43.403 13.255 43.353 13.305 43.253 13.305ZM43.253 13.935C43.153 13.935 43.103 13.885 43.103 13.785C43.103 13.685 43.153 13.635 43.253 13.635C43.353 13.635 43.403 13.685 43.403 13.785C43.403 13.885 43.353 13.935 43.253 13.935ZM43.253 14.475C43.153 14.475 43.103 14.425 43.103 14.325C43.103 14.225 43.153 14.175 43.253 14.175C43.353 14.175 43.403 14.225 43.403 14.325C43.403 14.425 43.353 14.475 43.253 14.475ZM43.253 15C43.153 15 43.103 14.95 43.103 14.85C43.103 14.75 43.153 14.7 43.253 14.7C43.353 14.7 43.403 14.75 43.403 14.85C43.403 14.95 43.353 15 43.253 15ZM40.538 7.515C40.438 7.515 40.388 7.465 40.388 7.365C40.388 7.265 40.438 7.215 40.538 7.215C40.638 7.215 40.688 7.265 40.688 7.365C40.688 7.465 40.638 7.515 40.538 7.515ZM41.213 7.455C41.113 7.455 41.063 7.405 41.063 7.305C41.063 7.205 41.113 7.155 41.213 7.155C41.313 7.155 41.363 7.205 41.363 7.305C41.363 7.405 41.313 7.455 41.213 7.455ZM41.858 7.59C41.758 7.59 41.708 7.54 41.708 7.44C41.708 7.34 41.758 7.29 41.858 7.29C41.958 7.29 42.008 7.34 42.008 7.44C42.008 7.54 41.958 7.59 41.858 7.59ZM42.443 7.935C42.343 7.935 42.293 7.885 42.293 7.785C42.293 7.685 42.343 7.635 42.443 7.635C42.543 7.635 42.593 7.685 42.593 7.785C42.593 7.885 42.543 7.935 42.443 7.935ZM42.773 8.355C42.673 8.355 42.623 8.305 42.623 8.205C42.623 8.105 42.673 8.055 42.773 8.055C42.873 8.055 42.923 8.105 42.923 8.205C42.923 8.305 42.873 8.355 42.773 8.355ZM43.103 9.39C43.003 9.39 42.953 9.34 42.953 9.24C42.953 9.14 43.003 9.09 43.103 9.09C43.203 9.09 43.253 9.14 43.253 9.24C43.253 9.34 43.203 9.39 43.103 9.39ZM43.178 9.945C43.078 9.945 43.028 9.895 43.028 9.795C43.028 9.695 43.078 9.645 43.178 9.645C43.278 9.645 43.328 9.695 43.328 9.795C43.328 9.895 43.278 9.945 43.178 9.945ZM42.983 8.865C42.883 8.865 42.833 8.815 42.833 8.715C42.833 8.615 42.883 8.565 42.983 8.565C43.083 8.565 43.133 8.615 43.133 8.715C43.133 8.815 43.083 8.865 42.983 8.865ZM43.253 10.515C43.153 10.515 43.103 10.465 43.103 10.365C43.103 10.265 43.153 10.215 43.253 10.215C43.353 10.215 43.403 10.265 43.403 10.365C43.403 10.465 43.353 10.515 43.253 10.515ZM39.893 7.74C39.793 7.74 39.743 7.69 39.743 7.59C39.743 7.49 39.793 7.44 39.893 7.44C39.993 7.44 40.043 7.49 40.043 7.59C40.043 7.69 39.993 7.74 39.893 7.74ZM43.253 10.98C43.153 10.98 43.103 10.93 43.103 10.83C43.103 10.73 43.153 10.68 43.253 10.68C43.353 10.68 43.403 10.73 43.403 10.83C43.403 10.93 43.353 10.98 43.253 10.98ZM39.308 8.01C39.208 8.01 39.158 7.96 39.158 7.86C39.158 7.76 39.208 7.71 39.308 7.71C39.408 7.71 39.458 7.76 39.458 7.86C39.458 7.96 39.408 8.01 39.308 8.01ZM38.798 8.4C38.698 8.4 38.648 8.35 38.648 8.25C38.648 8.15 38.698 8.1 38.798 8.1C38.898 8.1 38.948 8.15 38.948 8.25C38.948 8.35 38.898 8.4 38.798 8.4ZM38.378 8.88C38.278 8.88 38.228 8.83 38.228 8.73C38.228 8.63 38.278 8.58 38.378 8.58C38.478 8.58 38.528 8.63 38.528 8.73C38.528 8.83 38.478 8.88 38.378 8.88ZM38.003 9.405C37.903 9.405 37.853 9.355 37.853 9.255C37.853 9.155 37.903 9.105 38.003 9.105C38.103 9.105 38.153 9.155 38.153 9.255C38.153 9.355 38.103 9.405 38.003 9.405Z" fill="black"/>
<defs>
<radialGradient id="paint0_radial_22_861" cx="0" cy="0" r="1" gradientUnits="userSpaceOnUse" gradientTransform="translate(51.5 36.5) rotate(90) scale(41.5 52.5)">
<stop stop-color="#FEFEEE"/>
<stop offset="1" stop-color="#F3D350"/>
</radialGradient>
<radialGradient id="paint1_radial_22_861" cx="0" cy="0" r="1" gradientUnits="userSpaceOnUse" gradientTransform="translate(51.5 36.5) rotate(90) scale(41.5 52.5)">
<stop stop-color="#FEFEEE"/>
<stop offset="1" stop-color="#F3D350"/>
</radialGradient>
</defs>
</svg>
