<svg width="98" height="73" viewBox="0 0 98 73" fill="none" xmlns="http://www.w3.org/2000/svg">
<path d="M18.2012 12.15C17.5212 12.15 16.9062 11.975 16.3562 11.625C15.8162 11.275 15.3912 10.79 15.0812 10.17C14.7712 9.54 14.6162 8.825 14.6162 8.025C14.6162 7.225 14.7712 6.515 15.0812 5.895C15.3912 5.265 15.8162 4.77 16.3562 4.41C16.9062 4.05 17.5262 3.87 18.2162 3.87C18.5762 3.87 18.9212 3.925 19.2512 4.035C19.5912 4.145 19.8912 4.295 20.1512 4.485C20.4212 4.675 20.6412 4.89 20.8112 5.13C20.9812 5.37 21.0862 5.625 21.1262 5.895L20.5412 6.03V0.9H22.9562V12H20.7062L20.5712 10.2L21.0512 10.29C21.0312 10.53 20.9412 10.765 20.7812 10.995C20.6212 11.215 20.4062 11.415 20.1362 11.595C19.8762 11.765 19.5812 11.9 19.2512 12C18.9212 12.1 18.5712 12.15 18.2012 12.15ZM18.8012 10.155C19.1712 10.155 19.4862 10.07 19.7462 9.9C20.0162 9.72 20.2262 9.47 20.3762 9.15C20.5262 8.83 20.6012 8.455 20.6012 8.025C20.6012 7.585 20.5262 7.205 20.3762 6.885C20.2262 6.565 20.0162 6.32 19.7462 6.15C19.4862 5.97 19.1712 5.88 18.8012 5.88C18.4412 5.88 18.1262 5.97 17.8562 6.15C17.5962 6.32 17.3912 6.565 17.2412 6.885C17.0912 7.205 17.0162 7.585 17.0162 8.025C17.0162 8.455 17.0912 8.83 17.2412 9.15C17.3912 9.47 17.5962 9.72 17.8562 9.9C18.1262 10.07 18.4412 10.155 18.8012 10.155ZM31.3456 10.125V8.25H29.4706V2.625H31.3456V0.749999H40.7206V2.625H42.5956V6.375H33.2206V8.25H40.7206V10.125H31.3456ZM33.2206 4.5H38.8456V2.625H33.2206V4.5ZM51.8956 12V2.625H53.7706V4.5H55.6456V6.375H57.5206V8.25H59.3956V2.625H61.2706V12H59.3956V10.125H57.5206V8.25H55.6456V6.375H53.7706V12H51.8956ZM75.1995 12.271C74.5257 12.271 73.8543 12.2173 73.1853 12.1099C72.5164 12.0073 71.9061 11.8169 71.3543 11.5386C70.8025 11.2603 70.3606 10.8696 70.0286 10.3667C69.6966 9.85889 69.5306 9.20215 69.5306 8.39648C69.5306 7.36621 69.7894 6.54102 70.3069 5.9209C70.8294 5.30078 71.5472 4.854 72.4603 4.58057C73.3782 4.30225 74.4305 4.16309 75.617 4.16309C76.657 4.16309 77.5872 4.31934 78.4075 4.63184C79.2278 4.93945 79.8724 5.39111 80.3411 5.98682C80.8147 6.57764 81.0516 7.29785 81.0516 8.14746C81.0516 8.86035 80.9319 9.46338 80.6927 9.95654C80.4583 10.4448 80.1385 10.8428 79.7332 11.1504C79.3328 11.4531 78.8787 11.6875 78.3709 11.8535C77.868 12.0146 77.3431 12.1245 76.7962 12.1831C76.2493 12.2417 75.7171 12.271 75.1995 12.271ZM75.3167 10.2715C75.927 10.2715 76.3738 10.0713 76.657 9.6709C76.9451 9.26562 77.0892 8.76758 77.0892 8.17676C77.0892 7.66406 76.9329 7.22949 76.6204 6.87305C76.3128 6.5166 75.866 6.33838 75.2801 6.33838C74.8797 6.33838 74.555 6.43848 74.306 6.63867C74.0569 6.83887 73.8738 7.09277 73.7566 7.40039C73.6443 7.70312 73.5882 8.01562 73.5882 8.33789C73.5882 8.95312 73.7273 9.4292 74.0057 9.76611C74.2889 10.103 74.7259 10.2715 75.3167 10.2715ZM16.8863 42.045C16.7963 42.045 16.7263 42.035 16.6763 42.015H16.4063H16.1813H16.0763L15.5063 41.88L15.4613 41.775V41.625L15.4463 41.22C15.4263 41.04 15.4163 40.885 15.4163 40.755L15.4013 39.615C15.3913 39.505 15.3863 39.355 15.3863 39.165C15.3863 38.705 15.4013 38.26 15.4313 37.83C15.4513 37.55 15.4613 37.1 15.4613 36.48C15.4613 36.38 15.4513 36.295 15.4313 36.225V36.075L15.4163 35.985C15.4163 35.755 15.4313 35.53 15.4613 35.31L15.4763 34.515L15.4613 34.155V33.81C15.4313 33.78 15.4163 33.745 15.4163 33.705C15.4163 33.555 15.5363 33.445 15.7763 33.375C15.9163 33.335 16.0913 33.315 16.3013 33.315H18.4913L19.5113 33.33C19.5113 33.33 19.5163 33.335 19.5263 33.345C19.5463 33.355 19.5663 33.37 19.5863 33.39C19.6663 33.47 19.7463 33.575 19.8263 33.705C19.9163 33.855 19.9913 34.015 20.0513 34.185C20.1213 34.385 20.2563 34.735 20.4563 35.235C20.6163 35.645 20.7513 35.97 20.8613 36.21C20.9413 36.47 21.0313 36.6 21.1313 36.6C21.2213 36.6 21.2913 36.535 21.3413 36.405C21.3613 36.385 21.3913 36.32 21.4313 36.21L21.6713 35.655C21.6913 35.615 21.7613 35.465 21.8813 35.205C21.9113 35.155 21.9963 34.975 22.1363 34.665L22.3613 34.185C22.3813 34.125 22.4113 34.05 22.4513 33.96C22.4913 33.87 22.5363 33.785 22.5863 33.705C22.6863 33.545 22.7663 33.44 22.8263 33.39C22.8463 33.35 22.8763 33.33 22.9163 33.33L23.9363 33.315H26.1113H26.2913H26.4263H26.6063C26.6463 33.325 26.7363 33.33 26.8763 33.33C26.8863 33.33 26.9063 33.395 26.9363 33.525C26.9663 34.035 26.9813 34.445 26.9813 34.755C27.0013 35.135 27.0113 35.71 27.0113 36.48V37.23C27.0113 37.68 26.9713 38.325 26.8913 39.165V39.615C26.9013 39.745 26.9063 39.925 26.9063 40.155L26.9213 40.785C26.9313 40.905 26.9363 41.065 26.9363 41.265C26.9363 41.445 26.9413 41.565 26.9513 41.625V41.775L26.9063 41.88L26.3363 42.015H26.2163H26.0063H25.7513C25.6913 42.035 25.6163 42.045 25.5263 42.045C25.1363 42.045 24.7363 42.03 24.3263 42C23.9163 41.96 23.6613 41.935 23.5613 41.925L23.5013 41.94H23.4263C23.3663 41.94 23.3363 41.845 23.3363 41.655C23.2863 41.395 23.2613 40.82 23.2613 39.93C23.2413 39.68 23.2313 39.34 23.2313 38.91C23.2313 38.84 23.1963 38.805 23.1263 38.805C23.0963 38.805 23.0663 38.845 23.0363 38.925C22.8863 39.285 22.7963 39.51 22.7663 39.6L22.6613 39.915L22.5413 40.155C22.3613 40.555 22.1663 40.865 21.9563 41.085C21.8263 41.215 21.6913 41.28 21.5513 41.28H21.3563H21.0863C20.9563 41.28 20.8613 41.275 20.8013 41.265C20.6913 41.265 20.6113 41.26 20.5613 41.25C20.2113 40.71 19.8863 40.115 19.5863 39.465C19.5463 39.345 19.5063 39.245 19.4663 39.165C19.4363 39.085 19.4113 39.015 19.3913 38.955C19.3213 38.855 19.2863 38.805 19.2863 38.805C19.2163 38.805 19.1813 38.84 19.1813 38.91V39.51C19.1813 40.12 19.1763 40.56 19.1663 40.83C19.1663 41.26 19.1363 41.58 19.0763 41.79C19.0663 41.83 19.0513 41.865 19.0313 41.895C19.0213 41.925 19.0063 41.94 18.9863 41.94H18.9113L18.8513 41.925C18.7613 41.935 18.5113 41.96 18.1013 42C17.7013 42.03 17.2963 42.045 16.8863 42.045ZM39.036 28.875V27H42.786V28.875H39.036ZM35.286 40.125V38.25H39.036V32.625H37.161V30.75H42.786V38.25H46.536V40.125H35.286ZM55.401 38.535C55.301 38.535 55.251 38.485 55.251 38.385C55.251 38.285 55.301 38.235 55.401 38.235C55.501 38.235 55.551 38.285 55.551 38.385C55.551 38.485 55.501 38.535 55.401 38.535ZM55.401 39.135C55.301 39.135 55.251 39.085 55.251 38.985C55.251 38.885 55.301 38.835 55.401 38.835C55.501 38.835 55.551 38.885 55.551 38.985C55.551 39.085 55.501 39.135 55.401 39.135ZM55.401 39.735C55.301 39.735 55.251 39.685 55.251 39.585C55.251 39.485 55.301 39.435 55.401 39.435C55.501 39.435 55.551 39.485 55.551 39.585C55.551 39.685 55.501 39.735 55.401 39.735ZM55.401 40.305C55.301 40.305 55.251 40.255 55.251 40.155C55.251 40.055 55.301 40.005 55.401 40.005C55.501 40.005 55.551 40.055 55.551 40.155C55.551 40.255 55.501 40.305 55.401 40.305ZM55.401 40.935C55.301 40.935 55.251 40.885 55.251 40.785C55.251 40.685 55.301 40.635 55.401 40.635C55.501 40.635 55.551 40.685 55.551 40.785C55.551 40.885 55.501 40.935 55.401 40.935ZM55.401 41.475C55.301 41.475 55.251 41.425 55.251 41.325C55.251 41.225 55.301 41.175 55.401 41.175C55.501 41.175 55.551 41.225 55.551 41.325C55.551 41.425 55.501 41.475 55.401 41.475ZM55.401 42C55.301 42 55.251 41.95 55.251 41.85C55.251 41.75 55.301 41.7 55.401 41.7C55.501 41.7 55.551 41.75 55.551 41.85C55.551 41.95 55.501 42 55.401 42ZM55.401 34.5C55.301 34.5 55.251 34.45 55.251 34.35C55.251 34.25 55.301 34.2 55.401 34.2C55.501 34.2 55.551 34.25 55.551 34.35C55.551 34.45 55.501 34.5 55.401 34.5ZM55.401 36.195C55.301 36.195 55.251 36.145 55.251 36.045C55.251 35.945 55.301 35.895 55.401 35.895C55.501 35.895 55.551 35.945 55.551 36.045C55.551 36.145 55.501 36.195 55.401 36.195ZM55.401 36.75C55.301 36.75 55.251 36.7 55.251 36.6C55.251 36.5 55.301 36.45 55.401 36.45C55.501 36.45 55.551 36.5 55.551 36.6C55.551 36.7 55.501 36.75 55.401 36.75ZM55.401 37.32C55.301 37.32 55.251 37.27 55.251 37.17C55.251 37.07 55.301 37.02 55.401 37.02C55.501 37.02 55.551 37.07 55.551 37.17C55.551 37.27 55.501 37.32 55.401 37.32ZM55.401 37.92C55.301 37.92 55.251 37.87 55.251 37.77C55.251 37.67 55.301 37.62 55.401 37.62C55.501 37.62 55.551 37.67 55.551 37.77C55.551 37.87 55.501 37.92 55.401 37.92ZM55.401 35.655C55.301 35.655 55.251 35.605 55.251 35.505C55.251 35.405 55.301 35.355 55.401 35.355C55.501 35.355 55.551 35.405 55.551 35.505C55.551 35.605 55.501 35.655 55.401 35.655ZM55.401 35.055C55.301 35.055 55.251 35.005 55.251 34.905C55.251 34.805 55.301 34.755 55.401 34.755C55.501 34.755 55.551 34.805 55.551 34.905C55.551 35.005 55.501 35.055 55.401 35.055ZM61.116 38.535C61.016 38.535 60.966 38.485 60.966 38.385C60.966 38.285 61.016 38.235 61.116 38.235C61.216 38.235 61.266 38.285 61.266 38.385C61.266 38.485 61.216 38.535 61.116 38.535ZM61.116 39.135C61.016 39.135 60.966 39.085 60.966 38.985C60.966 38.885 61.016 38.835 61.116 38.835C61.216 38.835 61.266 38.885 61.266 38.985C61.266 39.085 61.216 39.135 61.116 39.135ZM61.116 39.735C61.016 39.735 60.966 39.685 60.966 39.585C60.966 39.485 61.016 39.435 61.116 39.435C61.216 39.435 61.266 39.485 61.266 39.585C61.266 39.685 61.216 39.735 61.116 39.735ZM61.116 40.305C61.016 40.305 60.966 40.255 60.966 40.155C60.966 40.055 61.016 40.005 61.116 40.005C61.216 40.005 61.266 40.055 61.266 40.155C61.266 40.255 61.216 40.305 61.116 40.305ZM61.116 40.935C61.016 40.935 60.966 40.885 60.966 40.785C60.966 40.685 61.016 40.635 61.116 40.635C61.216 40.635 61.266 40.685 61.266 40.785C61.266 40.885 61.216 40.935 61.116 40.935ZM61.116 41.475C61.016 41.475 60.966 41.425 60.966 41.325C60.966 41.225 61.016 41.175 61.116 41.175C61.216 41.175 61.266 41.225 61.266 41.325C61.266 41.425 61.216 41.475 61.116 41.475ZM61.116 42C61.016 42 60.966 41.95 60.966 41.85C60.966 41.75 61.016 41.7 61.116 41.7C61.216 41.7 61.266 41.75 61.266 41.85C61.266 41.95 61.216 42 61.116 42ZM58.401 34.515C58.301 34.515 58.251 34.465 58.251 34.365C58.251 34.265 58.301 34.215 58.401 34.215C58.501 34.215 58.551 34.265 58.551 34.365C58.551 34.465 58.501 34.515 58.401 34.515ZM59.076 34.455C58.976 34.455 58.926 34.405 58.926 34.305C58.926 34.205 58.976 34.155 59.076 34.155C59.176 34.155 59.226 34.205 59.226 34.305C59.226 34.405 59.176 34.455 59.076 34.455ZM59.721 34.59C59.621 34.59 59.571 34.54 59.571 34.44C59.571 34.34 59.621 34.29 59.721 34.29C59.821 34.29 59.871 34.34 59.871 34.44C59.871 34.54 59.821 34.59 59.721 34.59ZM60.306 34.935C60.206 34.935 60.156 34.885 60.156 34.785C60.156 34.685 60.206 34.635 60.306 34.635C60.406 34.635 60.456 34.685 60.456 34.785C60.456 34.885 60.406 34.935 60.306 34.935ZM60.636 35.355C60.536 35.355 60.486 35.305 60.486 35.205C60.486 35.105 60.536 35.055 60.636 35.055C60.736 35.055 60.786 35.105 60.786 35.205C60.786 35.305 60.736 35.355 60.636 35.355ZM60.966 36.39C60.866 36.39 60.816 36.34 60.816 36.24C60.816 36.14 60.866 36.09 60.966 36.09C61.066 36.09 61.116 36.14 61.116 36.24C61.116 36.34 61.066 36.39 60.966 36.39ZM61.041 36.945C60.941 36.945 60.891 36.895 60.891 36.795C60.891 36.695 60.941 36.645 61.041 36.645C61.141 36.645 61.191 36.695 61.191 36.795C61.191 36.895 61.141 36.945 61.041 36.945ZM60.846 35.865C60.746 35.865 60.696 35.815 60.696 35.715C60.696 35.615 60.746 35.565 60.846 35.565C60.946 35.565 60.996 35.615 60.996 35.715C60.996 35.815 60.946 35.865 60.846 35.865ZM61.116 37.515C61.016 37.515 60.966 37.465 60.966 37.365C60.966 37.265 61.016 37.215 61.116 37.215C61.216 37.215 61.266 37.265 61.266 37.365C61.266 37.465 61.216 37.515 61.116 37.515ZM57.756 34.74C57.656 34.74 57.606 34.69 57.606 34.59C57.606 34.49 57.656 34.44 57.756 34.44C57.856 34.44 57.906 34.49 57.906 34.59C57.906 34.69 57.856 34.74 57.756 34.74ZM61.116 37.98C61.016 37.98 60.966 37.93 60.966 37.83C60.966 37.73 61.016 37.68 61.116 37.68C61.216 37.68 61.266 37.73 61.266 37.83C61.266 37.93 61.216 37.98 61.116 37.98ZM57.171 35.01C57.071 35.01 57.021 34.96 57.021 34.86C57.021 34.76 57.071 34.71 57.171 34.71C57.271 34.71 57.321 34.76 57.321 34.86C57.321 34.96 57.271 35.01 57.171 35.01ZM56.661 35.4C56.561 35.4 56.511 35.35 56.511 35.25C56.511 35.15 56.561 35.1 56.661 35.1C56.761 35.1 56.811 35.15 56.811 35.25C56.811 35.35 56.761 35.4 56.661 35.4ZM56.241 35.88C56.141 35.88 56.091 35.83 56.091 35.73C56.091 35.63 56.141 35.58 56.241 35.58C56.341 35.58 56.391 35.63 56.391 35.73C56.391 35.83 56.341 35.88 56.241 35.88ZM55.866 36.405C55.766 36.405 55.716 36.355 55.716 36.255C55.716 36.155 55.766 36.105 55.866 36.105C55.966 36.105 56.016 36.155 56.016 36.255C56.016 36.355 55.966 36.405 55.866 36.405ZM73.5369 42.2856C72.99 42.2856 72.4432 42.2124 71.8963 42.0659C71.3494 41.9243 70.8489 41.7021 70.3948 41.3994C69.9456 41.0918 69.5843 40.7012 69.3108 40.2275C69.0423 39.749 68.908 39.1777 68.908 38.5137C68.908 37.5811 69.118 36.7998 69.5379 36.1699C69.9627 35.5352 70.5169 35.0566 71.2005 34.7344C71.889 34.4121 72.6287 34.251 73.4197 34.251C74.2352 34.251 74.9187 34.3486 75.4705 34.5439C76.0271 34.7344 76.5203 35.1055 76.95 35.6572L76.9646 34.0972L80.2752 34.3755L80.2532 41.8389L77.4993 42.0439L77.0525 40.6011C76.7693 41.0601 76.3396 41.4556 75.7635 41.7876C75.1873 42.1196 74.4451 42.2856 73.5369 42.2856ZM74.782 40.0664C75.8904 40.042 76.4446 39.4658 76.4446 38.3379C76.4446 37.874 76.303 37.4858 76.0198 37.1733C75.7366 36.856 75.3411 36.6973 74.8333 36.6973C74.3011 36.6973 73.8934 36.8779 73.6102 37.2393C73.3318 37.6006 73.1927 38.0278 73.1927 38.521C73.1927 39.063 73.3538 39.4561 73.6761 39.7002C73.9983 39.9443 74.367 40.0664 74.782 40.0664ZM3.79541 70.125V62.625H0.0454102V60.75H3.79541V57H7.54541V60.75H11.2954V62.625H7.54541V70.125H3.79541ZM22.3354 62.34C22.3354 62.05 22.4354 61.805 22.6354 61.605C22.8454 61.395 23.0954 61.29 23.3854 61.29C23.6754 61.29 23.9204 61.395 24.1204 61.605C24.3304 61.805 24.4354 62.05 24.4354 62.34C24.4354 62.63 24.3304 62.88 24.1204 63.09C23.9204 63.29 23.6754 63.39 23.3854 63.39C23.0954 63.39 22.8454 63.29 22.6354 63.09C22.4354 62.88 22.3354 62.63 22.3354 62.34ZM20.2054 70.92H22.8154V65.64H20.4754V64.56H23.9854V70.92H26.4154V72H20.2054V70.92ZM37.205 72V70.125H35.33V64.5H37.205V62.625H40.955V64.5H42.83V70.125H40.955V72H37.205ZM37.205 70.05H40.955V64.575H37.205V70.05ZM50.255 70.125V60.75H61.505V62.625H63.38V70.125H59.63V62.625H54.005V70.125H50.255ZM72.68 70.125V68.25H76.43V60.75H74.555V58.875H76.43V57H80.18V68.25H83.93V70.125H72.68ZM93.935 72.18C93.645 72.18 93.33 72.125 92.99 72.015C92.65 71.905 92.32 71.745 92 71.535C91.69 71.315 91.425 71.04 91.205 70.71L92.585 69.57C92.855 69.88 93.115 70.105 93.365 70.245C93.625 70.375 93.865 70.44 94.085 70.44C94.315 70.44 94.51 70.395 94.67 70.305C94.84 70.205 94.925 70.08 94.925 69.93C94.925 69.73 94.81 69.57 94.58 69.45C94.36 69.33 94.055 69.16 93.665 68.94C93.295 68.73 92.96 68.45 92.66 68.1C92.37 67.75 92.225 67.33 92.225 66.84C92.225 66.36 92.36 65.93 92.63 65.55C92.9 65.17 93.265 64.87 93.725 64.65C94.185 64.43 94.695 64.32 95.255 64.32C95.795 64.32 96.275 64.44 96.695 64.68C97.125 64.91 97.495 65.19 97.805 65.52L96.515 66.75C96.335 66.57 96.14 66.415 95.93 66.285C95.72 66.155 95.495 66.09 95.255 66.09C95.015 66.09 94.825 66.145 94.685 66.255C94.545 66.355 94.475 66.48 94.475 66.63C94.475 66.84 94.605 67.005 94.865 67.125C95.125 67.245 95.395 67.39 95.675 67.56C95.915 67.69 96.15 67.85 96.38 68.04C96.61 68.22 96.8 68.445 96.95 68.715C97.1 68.975 97.175 69.29 97.175 69.66C97.175 70.16 97.035 70.6 96.755 70.98C96.485 71.36 96.105 71.655 95.615 71.865C95.125 72.075 94.565 72.18 93.935 72.18Z" fill="url(#paint0_radial_5_1278)"/>
<defs>
<radialGradient id="paint0_radial_5_1278" cx="0" cy="0" r="1" gradientUnits="userSpaceOnUse" gradientTransform="translate(48 36) rotate(90) scale(45 50)">
<stop stop-color="#FEFEEE"/>
<stop offset="1" stop-color="#F3D350"/>
</radialGradient>
</defs>
</svg>
