<svg width="17" height="20" viewBox="0 0 17 20" fill="none" xmlns="http://www.w3.org/2000/svg">
<path d="M7.42247 19.432C6.72647 19.432 5.97047 19.3 5.15447 19.036C4.33847 18.772 3.54647 18.388 2.77847 17.884C2.03447 17.356 1.39847 16.696 0.870469 15.904L4.18247 13.168C4.83047 13.912 5.45447 14.452 6.05447 14.788C6.67847 15.1 7.25447 15.256 7.78247 15.256C8.33447 15.256 8.80247 15.148 9.18647 14.932C9.59447 14.692 9.79847 14.392 9.79847 14.032C9.79847 13.552 9.52247 13.168 8.97047 12.88C8.44247 12.592 7.71047 12.184 6.77447 11.656C5.88647 11.152 5.08247 10.48 4.36247 9.64C3.66647 8.8 3.31847 7.792 3.31847 6.616C3.31847 5.464 3.64247 4.432 4.29047 3.52C4.93847 2.608 5.81447 1.888 6.91847 1.36C8.02247 0.831999 9.24647 0.567999 10.5905 0.567999C11.8865 0.567999 13.0385 0.855999 14.0465 1.432C15.0785 1.984 15.9665 2.656 16.7105 3.448L13.6145 6.4C13.1825 5.968 12.7145 5.596 12.2105 5.284C11.7065 4.972 11.1665 4.816 10.5905 4.816C10.0145 4.816 9.55847 4.948 9.22247 5.212C8.88647 5.452 8.71847 5.752 8.71847 6.112C8.71847 6.616 9.03047 7.012 9.65447 7.3C10.2785 7.588 10.9265 7.936 11.5985 8.344C12.1745 8.656 12.7385 9.04 13.2905 9.496C13.8425 9.928 14.2985 10.468 14.6585 11.116C15.0185 11.74 15.1985 12.496 15.1985 13.384C15.1985 14.584 14.8625 15.64 14.1905 16.552C13.5425 17.464 12.6305 18.172 11.4545 18.676C10.2785 19.18 8.93447 19.432 7.42247 19.432Z" fill="white"/>
</svg>
