<svg width="27" height="40" viewBox="0 0 27 40" fill="none" xmlns="http://www.w3.org/2000/svg">
<rect x="1" y="1" width="24.6667" height="38" rx="2" fill="#F8E9BE" stroke="url(#paint0_radial_177_851)" stroke-width="2"/>
<g filter="url(#filter0_d_177_851)">
<rect x="13.3333" y="4.44446" width="10" height="5.55556" rx="2.77778" fill="url(#paint1_radial_177_851)"/>
<rect x="13.3833" y="4.49446" width="9.9" height="5.45556" rx="2.72778" stroke="#BB882E" stroke-width="0.1"/>
</g>
<g filter="url(#filter1_d_177_851)">
<path d="M6.49185 23.2222L8.98185 15.9222H11.3018L13.8618 23.2222H12.4018L10.2318 16.8922L10.7418 17.1122H9.49185L10.0118 16.8922L7.91185 23.2222H6.49185ZM8.23185 21.2822L8.68185 20.0822H11.6418L12.0818 21.2822H8.23185ZM16.6081 23.3922C15.9814 23.3922 15.4948 23.1855 15.1481 22.7722C14.8081 22.3588 14.6381 21.7455 14.6381 20.9322V17.7822H16.0281V21.0522C16.0281 21.3855 16.1214 21.6522 16.3081 21.8522C16.4948 22.0455 16.7481 22.1422 17.0681 22.1422C17.3881 22.1422 17.6481 22.0388 17.8481 21.8322C18.0548 21.6255 18.1581 21.3455 18.1581 20.9922V17.7822H19.5481V23.2222H18.4481V20.9122H18.5581C18.5581 21.4588 18.4881 21.9155 18.3481 22.2822C18.2081 22.6488 17.9981 22.9255 17.7181 23.1122C17.4381 23.2988 17.0881 23.3922 16.6681 23.3922H16.6081Z" fill="url(#paint2_radial_177_851)"/>
</g>
<g filter="url(#filter2_d_177_851)">
<path d="M10.024 34.076C9.77337 34.076 9.55204 34.0347 9.36004 33.952C9.1707 33.8667 9.0107 33.7533 8.88004 33.612C8.75204 33.468 8.6547 33.3067 8.58804 33.128C8.52404 32.9467 8.49204 32.7587 8.49204 32.564V32.476C8.49204 32.292 8.52404 32.112 8.58804 31.936C8.65204 31.76 8.74537 31.6013 8.86804 31.46C8.99337 31.3187 9.1467 31.2067 9.32804 31.124C9.51204 31.0387 9.7227 30.996 9.96004 30.996C10.216 30.996 10.4427 31.044 10.64 31.14C10.8374 31.2333 10.996 31.3653 11.116 31.536C11.236 31.704 11.3067 31.9 11.328 32.124H10.756C10.7374 31.9987 10.6907 31.892 10.616 31.804C10.5414 31.7133 10.4467 31.644 10.332 31.596C10.22 31.548 10.096 31.524 9.96004 31.524C9.82404 31.524 9.70004 31.548 9.58804 31.596C9.4787 31.644 9.38537 31.712 9.30804 31.8C9.2307 31.888 9.1707 31.9933 9.12804 32.116C9.08804 32.2387 9.06804 32.3747 9.06804 32.524C9.06804 32.6867 9.0907 32.832 9.13604 32.96C9.18137 33.088 9.24537 33.1973 9.32804 33.288C9.4107 33.376 9.5107 33.444 9.62804 33.492C9.74537 33.5373 9.87737 33.56 10.024 33.56C10.2187 33.56 10.3894 33.52 10.536 33.44C10.6827 33.3573 10.7894 33.2507 10.856 33.12L10.756 33.58V32.828H11.28V33.476C11.1547 33.6653 10.984 33.8133 10.768 33.92C10.552 34.024 10.304 34.076 10.024 34.076ZM9.93204 32.94V32.516H11.524V32.94H9.93204ZM12.9922 34.076C12.8002 34.076 12.6308 34.0453 12.4842 33.984C12.3375 33.9227 12.2135 33.84 12.1122 33.736C12.0108 33.6293 11.9335 33.5093 11.8802 33.376C11.8295 33.2427 11.8042 33.104 11.8042 32.96V32.876C11.8042 32.7267 11.8308 32.5853 11.8842 32.452C11.9402 32.316 12.0188 32.196 12.1202 32.092C12.2242 31.9853 12.3495 31.9027 12.4962 31.844C12.6428 31.7827 12.8082 31.752 12.9922 31.752C13.1762 31.752 13.3415 31.7827 13.4882 31.844C13.6348 31.9027 13.7588 31.9853 13.8602 32.092C13.9642 32.196 14.0428 32.316 14.0962 32.452C14.1495 32.5853 14.1762 32.7267 14.1762 32.876V32.96C14.1762 33.104 14.1495 33.2427 14.0962 33.376C14.0455 33.5093 13.9695 33.6293 13.8682 33.736C13.7668 33.84 13.6428 33.9227 13.4962 33.984C13.3495 34.0453 13.1815 34.076 12.9922 34.076ZM12.9922 33.6C13.1282 33.6 13.2428 33.5707 13.3362 33.512C13.4295 33.4507 13.5002 33.3693 13.5482 33.268C13.5962 33.164 13.6202 33.0467 13.6202 32.916C13.6202 32.7827 13.5948 32.6653 13.5442 32.564C13.4962 32.46 13.4242 32.3787 13.3282 32.32C13.2348 32.2587 13.1228 32.228 12.9922 32.228C12.8615 32.228 12.7482 32.2587 12.6522 32.32C12.5588 32.3787 12.4868 32.46 12.4362 32.564C12.3855 32.6653 12.3602 32.7827 12.3602 32.916C12.3602 33.0467 12.3842 33.164 12.4322 33.268C12.4828 33.3693 12.5548 33.4507 12.6482 33.512C12.7415 33.5707 12.8562 33.6 12.9922 33.6ZM14.691 34V31.08H15.247V34H14.691ZM14.419 31.496V31.08H15.247V31.496H14.419ZM16.7818 34.072C16.6298 34.072 16.4898 34.044 16.3618 33.988C16.2338 33.932 16.1231 33.8533 16.0298 33.752C15.9364 33.6507 15.8644 33.5333 15.8138 33.4C15.7631 33.264 15.7378 33.1173 15.7378 32.96V32.876C15.7378 32.7213 15.7618 32.576 15.8098 32.44C15.8604 32.304 15.9298 32.1853 16.0178 32.084C16.1084 31.9827 16.2164 31.904 16.3418 31.848C16.4698 31.7893 16.6111 31.76 16.7658 31.76C16.9364 31.76 17.0858 31.7973 17.2138 31.872C17.3444 31.944 17.4484 32.0533 17.5258 32.2C17.6031 32.3467 17.6458 32.5307 17.6538 32.752L17.4898 32.56V31.08H18.0458V34H17.6058V33.076H17.7018C17.6938 33.2973 17.6484 33.4827 17.5658 33.632C17.4831 33.7787 17.3738 33.8893 17.2378 33.964C17.1044 34.036 16.9524 34.072 16.7818 34.072ZM16.9058 33.604C17.0151 33.604 17.1151 33.58 17.2058 33.532C17.2964 33.4813 17.3684 33.4093 17.4218 33.316C17.4778 33.22 17.5058 33.108 17.5058 32.98V32.82C17.5058 32.692 17.4778 32.5853 17.4218 32.5C17.3658 32.412 17.2924 32.3453 17.2018 32.3C17.1111 32.252 17.0124 32.228 16.9058 32.228C16.7858 32.228 16.6791 32.2573 16.5858 32.316C16.4951 32.372 16.4231 32.452 16.3698 32.556C16.3191 32.66 16.2938 32.7813 16.2938 32.92C16.2938 33.0587 16.3204 33.18 16.3738 33.284C16.4271 33.3853 16.4991 33.464 16.5898 33.52C16.6831 33.576 16.7884 33.604 16.9058 33.604Z" fill="url(#paint3_radial_177_851)"/>
</g>
<g filter="url(#filter3_d_177_851)">
<path d="M5.8069 8.44446L6.8989 6.04446L6.8629 5.99246H5.3829V5.52446H7.5109V5.95646L6.4029 8.44446H5.8069ZM5.3829 6.46046V5.52446H5.8429V6.46046H5.3829ZM8.90172 5.44046C9.11772 5.44046 9.30038 5.47779 9.44972 5.55246C9.60172 5.62446 9.72438 5.72446 9.81772 5.85246C9.91105 5.98046 9.97905 6.12979 10.0217 6.30046C10.0644 6.46846 10.0857 6.64712 10.0857 6.83646V7.01246C10.0857 7.48979 9.96438 7.85246 9.72172 8.10046C9.48172 8.34579 9.12838 8.46846 8.66172 8.46846C8.56038 8.46846 8.46572 8.46579 8.37772 8.46046C8.28972 8.45512 8.20172 8.44712 8.11372 8.43646V7.96046C8.20172 7.97112 8.29105 7.97912 8.38172 7.98446C8.47505 7.98979 8.57505 7.99246 8.68172 7.99246C8.90572 7.99246 9.08172 7.95379 9.20972 7.87646C9.33772 7.79912 9.42838 7.68579 9.48172 7.53646C9.53772 7.38712 9.56572 7.20179 9.56572 6.98046V6.72046L9.69372 6.53646C9.69105 6.74179 9.64972 6.91246 9.56972 7.04846C9.49238 7.18179 9.38438 7.28312 9.24572 7.35246C9.10705 7.41912 8.94838 7.45246 8.76972 7.45246C8.56172 7.45246 8.38438 7.41112 8.23772 7.32846C8.09105 7.24579 7.97772 7.13112 7.89772 6.98446C7.82038 6.83779 7.78172 6.66712 7.78172 6.47246C7.78172 6.26979 7.82705 6.09112 7.91772 5.93646C8.00838 5.77912 8.13638 5.65779 8.30172 5.57246C8.46972 5.48446 8.66972 5.44046 8.90172 5.44046ZM8.91372 5.91646C8.78838 5.91646 8.68172 5.94046 8.59372 5.98846C8.50572 6.03379 8.43905 6.09779 8.39372 6.18046C8.34838 6.26312 8.32572 6.35779 8.32572 6.46446C8.32572 6.57379 8.34705 6.66979 8.38972 6.75246C8.43505 6.83512 8.50038 6.89912 8.58572 6.94446C8.67105 6.98979 8.77372 7.01246 8.89372 7.01246C9.00838 7.01246 9.11238 6.99246 9.20572 6.95246C9.30172 6.90979 9.37638 6.84846 9.42972 6.76846C9.48572 6.68579 9.51372 6.58446 9.51372 6.46446C9.51372 6.36046 9.49105 6.26712 9.44572 6.18446C9.40305 6.10179 9.33638 6.03646 9.24572 5.98846C9.15772 5.94046 9.04705 5.91646 8.91372 5.91646Z" fill="url(#paint4_radial_177_851)"/>
</g>
<defs>
<filter id="filter0_d_177_851" x="13.3333" y="4.44446" width="10" height="5.55554" filterUnits="userSpaceOnUse" color-interpolation-filters="sRGB">
<feFlood flood-opacity="0" result="BackgroundImageFix"/>
<feColorMatrix in="SourceAlpha" type="matrix" values="0 0 0 0 0 0 0 0 0 0 0 0 0 0 0 0 0 0 127 0" result="hardAlpha"/>
<feOffset/>
<feComposite in2="hardAlpha" operator="out"/>
<feColorMatrix type="matrix" values="0 0 0 0 0.745098 0 0 0 0 0.54902 0 0 0 0 0.192157 0 0 0 0.25 0"/>
<feBlend mode="normal" in2="BackgroundImageFix" result="effect1_dropShadow_177_851"/>
<feBlend mode="normal" in="SourceGraphic" in2="effect1_dropShadow_177_851" result="shape"/>
</filter>
<filter id="filter1_d_177_851" x="6.49185" y="15.9221" width="13.0563" height="7.47009" filterUnits="userSpaceOnUse" color-interpolation-filters="sRGB">
<feFlood flood-opacity="0" result="BackgroundImageFix"/>
<feColorMatrix in="SourceAlpha" type="matrix" values="0 0 0 0 0 0 0 0 0 0 0 0 0 0 0 0 0 0 127 0" result="hardAlpha"/>
<feOffset/>
<feComposite in2="hardAlpha" operator="out"/>
<feColorMatrix type="matrix" values="0 0 0 0 0.745098 0 0 0 0 0.54902 0 0 0 0 0.192157 0 0 0 0.25 0"/>
<feBlend mode="normal" in2="BackgroundImageFix" result="effect1_dropShadow_177_851"/>
<feBlend mode="normal" in="SourceGraphic" in2="effect1_dropShadow_177_851" result="shape"/>
</filter>
<filter id="filter2_d_177_851" x="8.49204" y="30.996" width="9.55372" height="3.08008" filterUnits="userSpaceOnUse" color-interpolation-filters="sRGB">
<feFlood flood-opacity="0" result="BackgroundImageFix"/>
<feColorMatrix in="SourceAlpha" type="matrix" values="0 0 0 0 0 0 0 0 0 0 0 0 0 0 0 0 0 0 127 0" result="hardAlpha"/>
<feOffset/>
<feComposite in2="hardAlpha" operator="out"/>
<feColorMatrix type="matrix" values="0 0 0 0 0.745098 0 0 0 0 0.54902 0 0 0 0 0.192157 0 0 0 0.25 0"/>
<feBlend mode="normal" in2="BackgroundImageFix" result="effect1_dropShadow_177_851"/>
<feBlend mode="normal" in="SourceGraphic" in2="effect1_dropShadow_177_851" result="shape"/>
</filter>
<filter id="filter3_d_177_851" x="5.3829" y="5.44043" width="4.70281" height="3.02808" filterUnits="userSpaceOnUse" color-interpolation-filters="sRGB">
<feFlood flood-opacity="0" result="BackgroundImageFix"/>
<feColorMatrix in="SourceAlpha" type="matrix" values="0 0 0 0 0 0 0 0 0 0 0 0 0 0 0 0 0 0 127 0" result="hardAlpha"/>
<feOffset/>
<feComposite in2="hardAlpha" operator="out"/>
<feColorMatrix type="matrix" values="0 0 0 0 0.745098 0 0 0 0 0.54902 0 0 0 0 0.192157 0 0 0 0.25 0"/>
<feBlend mode="normal" in2="BackgroundImageFix" result="effect1_dropShadow_177_851"/>
<feBlend mode="normal" in="SourceGraphic" in2="effect1_dropShadow_177_851" result="shape"/>
</filter>
<radialGradient id="paint0_radial_177_851" cx="0" cy="0" r="1" gradientUnits="userSpaceOnUse" gradientTransform="translate(13.3333 20) rotate(90) scale(20 13.3333)">
<stop stop-color="#C29033"/>
<stop offset="1" stop-color="#F9DC6A"/>
</radialGradient>
<radialGradient id="paint1_radial_177_851" cx="0" cy="0" r="1" gradientUnits="userSpaceOnUse" gradientTransform="translate(18.3333 7.22224) rotate(90) scale(2.77778 5)">
<stop stop-color="#C29033"/>
<stop offset="1" stop-color="#F9DC6A"/>
</radialGradient>
<radialGradient id="paint2_radial_177_851" cx="0" cy="0" r="1" gradientUnits="userSpaceOnUse" gradientTransform="translate(13.3333 19.4444) rotate(90) scale(7.22222 11.1111)">
<stop stop-color="#C29033"/>
<stop offset="1" stop-color="#F9DC6A"/>
</radialGradient>
<radialGradient id="paint3_radial_177_851" cx="0" cy="0" r="1" gradientUnits="userSpaceOnUse" gradientTransform="translate(13.3333 32.7778) rotate(90) scale(2.77778 11.1111)">
<stop stop-color="#C29033"/>
<stop offset="1" stop-color="#F9DC6A"/>
</radialGradient>
<radialGradient id="paint4_radial_177_851" cx="0" cy="0" r="1" gradientUnits="userSpaceOnUse" gradientTransform="translate(7.77778 7.22224) rotate(90) scale(2.77778 5.55556)">
<stop stop-color="#C29033"/>
<stop offset="1" stop-color="#F9DC6A"/>
</radialGradient>
</defs>
</svg>
