<svg width="27" height="40" viewBox="0 0 27 40" fill="none" xmlns="http://www.w3.org/2000/svg">
<rect x="1" y="1" width="24.6667" height="38" rx="2" fill="#E3E3E3" stroke="url(#paint0_radial_176_816)" stroke-width="2"/>
<g filter="url(#filter0_d_176_816)">
<rect x="13.3333" y="4.44446" width="10" height="5.55556" rx="2.77778" fill="url(#paint1_radial_176_816)"/>
<rect x="13.3833" y="4.49446" width="9.9" height="5.45556" rx="2.72778" stroke="#8D8B8B" stroke-width="0.1"/>
</g>
<g filter="url(#filter1_d_176_816)">
<path d="M6.27212 23.2222L8.76212 15.9222H11.0821L13.6421 23.2222H12.1821L10.0121 16.8922L10.5221 17.1122H9.27212L9.79212 16.8922L7.69212 23.2222H6.27212ZM8.01212 21.2822L8.46212 20.0822H11.4221L11.8621 21.2822H8.01212ZM16.6584 25.3622C16.3984 25.3622 16.1317 25.3522 15.8584 25.3322C15.5917 25.3122 15.3417 25.2855 15.1084 25.2522V24.0922C15.3484 24.1188 15.605 24.1422 15.8784 24.1622C16.1517 24.1888 16.4084 24.2022 16.6484 24.2022C17.095 24.2022 17.455 24.1488 17.7284 24.0422C18.0084 23.9355 18.2117 23.7655 18.3384 23.5322C18.4717 23.3055 18.5384 23.0155 18.5384 22.6622V21.5922L18.8384 20.9122C18.8184 21.4122 18.715 21.8388 18.5284 22.1922C18.3417 22.5388 18.0884 22.8055 17.7684 22.9922C17.4484 23.1722 17.0784 23.2622 16.6584 23.2622C16.285 23.2622 15.945 23.1922 15.6384 23.0522C15.3384 22.9122 15.0784 22.7188 14.8584 22.4722C14.645 22.2255 14.4784 21.9355 14.3584 21.6022C14.2384 21.2688 14.1784 20.9122 14.1784 20.5322V20.3222C14.1784 19.9422 14.2384 19.5888 14.3584 19.2622C14.485 18.9288 14.6617 18.6388 14.8884 18.3922C15.115 18.1455 15.385 17.9555 15.6984 17.8222C16.0117 17.6888 16.3584 17.6222 16.7384 17.6222C17.185 17.6222 17.5717 17.7188 17.8984 17.9122C18.2317 18.1055 18.4917 18.3855 18.6784 18.7522C18.865 19.1188 18.9684 19.5688 18.9884 20.1022L18.7484 20.1422V17.7922H19.8484V22.5822C19.8484 23.2422 19.735 23.7755 19.5084 24.1822C19.2817 24.5888 18.9317 24.8855 18.4584 25.0722C17.9917 25.2655 17.3917 25.3622 16.6584 25.3622ZM17.0584 22.0722C17.325 22.0722 17.5684 22.0122 17.7884 21.8922C18.0084 21.7722 18.185 21.5988 18.3184 21.3722C18.4517 21.1455 18.5184 20.8722 18.5184 20.5522V20.2022C18.5184 19.8955 18.4484 19.6355 18.3084 19.4222C18.175 19.2088 17.9984 19.0488 17.7784 18.9422C17.5584 18.8288 17.3184 18.7722 17.0584 18.7722C16.765 18.7722 16.505 18.8422 16.2784 18.9822C16.0584 19.1155 15.885 19.3055 15.7584 19.5522C15.6317 19.7988 15.5684 20.0922 15.5684 20.4322C15.5684 20.7655 15.6317 21.0555 15.7584 21.3022C15.885 21.5488 16.0584 21.7388 16.2784 21.8722C16.505 22.0055 16.765 22.0722 17.0584 22.0722Z" fill="url(#paint2_radial_176_816)"/>
</g>
<g filter="url(#filter2_d_176_816)">
<path d="M8.86316 34.076C8.60449 34.076 8.38583 34.0347 8.20716 33.952C8.03116 33.8693 7.89649 33.756 7.80316 33.612C7.70983 33.4653 7.66316 33.3 7.66316 33.116H8.21916C8.21916 33.1933 8.24049 33.2693 8.28316 33.344C8.32583 33.416 8.39383 33.4747 8.48716 33.52C8.58316 33.5653 8.70849 33.588 8.86316 33.588C9.00183 33.588 9.11783 33.568 9.21116 33.528C9.30449 33.488 9.37383 33.436 9.41916 33.372C9.46449 33.3053 9.48716 33.2307 9.48716 33.148C9.48716 33.044 9.44316 32.9613 9.35516 32.9C9.26716 32.836 9.13116 32.796 8.94716 32.78L8.69116 32.76C8.41116 32.736 8.18716 32.6493 8.01916 32.5C7.85383 32.348 7.77116 32.148 7.77116 31.9C7.77116 31.7133 7.81516 31.5533 7.90316 31.42C7.99116 31.284 8.11383 31.18 8.27116 31.108C8.43116 31.0333 8.61783 30.996 8.83116 30.996C9.05249 30.996 9.24316 31.0347 9.40316 31.112C9.56316 31.1893 9.68716 31.2987 9.77516 31.44C9.86316 31.5787 9.90716 31.7427 9.90716 31.932H9.35116C9.35116 31.852 9.33116 31.7787 9.29116 31.712C9.25383 31.6427 9.19649 31.588 9.11916 31.548C9.04449 31.5053 8.94849 31.484 8.83116 31.484C8.71916 31.484 8.62583 31.5027 8.55116 31.54C8.47649 31.5773 8.42049 31.628 8.38316 31.692C8.34583 31.756 8.32716 31.8253 8.32716 31.9C8.32716 31.9907 8.36049 32.0707 8.42716 32.14C8.49383 32.2067 8.59916 32.2453 8.74316 32.256L8.99916 32.28C9.20716 32.296 9.38983 32.34 9.54716 32.412C9.70449 32.484 9.82583 32.5813 9.91116 32.704C9.99916 32.8267 10.0432 32.9747 10.0432 33.148C10.0432 33.332 9.99516 33.4947 9.89916 33.636C9.80316 33.7747 9.66583 33.8827 9.48716 33.96C9.31116 34.0373 9.10316 34.076 8.86316 34.076ZM10.6225 34V31.828H11.1785V34H10.6225ZM10.3185 32.244V31.828H11.1785V32.244H10.3185ZM10.8265 31.568C10.7171 31.568 10.6358 31.54 10.5825 31.484C10.5318 31.4253 10.5065 31.3533 10.5065 31.268C10.5065 31.1773 10.5318 31.104 10.5825 31.048C10.6358 30.992 10.7171 30.964 10.8265 30.964C10.9358 30.964 11.0158 30.992 11.0665 31.048C11.1171 31.104 11.1425 31.1773 11.1425 31.268C11.1425 31.3533 11.1171 31.4253 11.0665 31.484C11.0158 31.54 10.9358 31.568 10.8265 31.568ZM11.8473 34V31.08H12.4033V34H11.8473ZM11.5753 31.496V31.08H12.4033V31.496H11.5753ZM13.474 34L12.794 31.828H13.366L14.018 34H13.474ZM13.638 34V33.544H14.226V34H13.638ZM13.858 34L14.418 31.828H14.954L14.366 34H13.858ZM16.2991 34.076C16.1124 34.076 15.9484 34.044 15.8071 33.98C15.6684 33.916 15.5524 33.8307 15.4591 33.724C15.3684 33.6147 15.2991 33.4933 15.2511 33.36C15.2057 33.2267 15.1831 33.0907 15.1831 32.952V32.876C15.1831 32.732 15.2057 32.5933 15.2511 32.46C15.2991 32.324 15.3684 32.204 15.4591 32.1C15.5524 31.9933 15.6671 31.9093 15.8031 31.848C15.9391 31.784 16.0964 31.752 16.2751 31.752C16.5097 31.752 16.7057 31.804 16.8631 31.908C17.0231 32.0093 17.1431 32.144 17.2231 32.312C17.3031 32.4773 17.3431 32.656 17.3431 32.848V33.048H15.4191V32.708H16.9951L16.8231 32.876C16.8231 32.7373 16.8031 32.6187 16.7631 32.52C16.7231 32.4213 16.6617 32.3453 16.5791 32.292C16.4991 32.2387 16.3977 32.212 16.2751 32.212C16.1524 32.212 16.0484 32.24 15.9631 32.296C15.8777 32.352 15.8124 32.4333 15.7671 32.54C15.7244 32.644 15.7031 32.7693 15.7031 32.916C15.7031 33.052 15.7244 33.1733 15.7671 33.28C15.8097 33.384 15.8751 33.4667 15.9631 33.528C16.0511 33.5867 16.1631 33.616 16.2991 33.616C16.4351 33.616 16.5457 33.5893 16.6311 33.536C16.7164 33.48 16.7711 33.412 16.7951 33.332H17.3071C17.2751 33.4813 17.2137 33.612 17.1231 33.724C17.0324 33.836 16.9164 33.9227 16.7751 33.984C16.6364 34.0453 16.4777 34.076 16.2991 34.076ZM17.8075 34V31.828H18.2475V32.748H18.2355C18.2355 32.436 18.3022 32.2 18.4355 32.04C18.5689 31.88 18.7649 31.8 19.0235 31.8H19.1035V32.284H18.9515C18.7649 32.284 18.6195 32.3347 18.5155 32.436C18.4142 32.5347 18.3635 32.6787 18.3635 32.868V34H17.8075Z" fill="url(#paint3_radial_176_816)"/>
</g>
<g filter="url(#filter3_d_176_816)">
<path d="M5.41415 7.84046V7.22446L6.55815 5.44446L6.98615 5.73646L5.97815 7.31246L6.02615 7.39246H7.81815V7.84046H5.41415ZM6.94215 8.44446V6.35246H7.46615V8.44446H6.94215ZM8.48659 8.44446L9.57859 6.04446L9.54259 5.99246H8.06259V5.52446H10.1906V5.95646L9.08259 8.44446H8.48659ZM8.06259 6.46046V5.52446H8.52259V6.46046H8.06259Z" fill="url(#paint4_radial_176_816)"/>
</g>
<defs>
<filter id="filter0_d_176_816" x="13.3333" y="4.44446" width="10" height="5.55554" filterUnits="userSpaceOnUse" color-interpolation-filters="sRGB">
<feFlood flood-opacity="0" result="BackgroundImageFix"/>
<feColorMatrix in="SourceAlpha" type="matrix" values="0 0 0 0 0 0 0 0 0 0 0 0 0 0 0 0 0 0 127 0" result="hardAlpha"/>
<feOffset/>
<feComposite in2="hardAlpha" operator="out"/>
<feColorMatrix type="matrix" values="0 0 0 0 0.34902 0 0 0 0 0.341176 0 0 0 0 0.341176 0 0 0 0.25 0"/>
<feBlend mode="normal" in2="BackgroundImageFix" result="effect1_dropShadow_176_816"/>
<feBlend mode="normal" in="SourceGraphic" in2="effect1_dropShadow_176_816" result="shape"/>
</filter>
<filter id="filter1_d_176_816" x="6.27212" y="15.9221" width="13.5763" height="9.44006" filterUnits="userSpaceOnUse" color-interpolation-filters="sRGB">
<feFlood flood-opacity="0" result="BackgroundImageFix"/>
<feColorMatrix in="SourceAlpha" type="matrix" values="0 0 0 0 0 0 0 0 0 0 0 0 0 0 0 0 0 0 127 0" result="hardAlpha"/>
<feOffset/>
<feComposite in2="hardAlpha" operator="out"/>
<feColorMatrix type="matrix" values="0 0 0 0 0.34902 0 0 0 0 0.341176 0 0 0 0 0.341176 0 0 0 0.25 0"/>
<feBlend mode="normal" in2="BackgroundImageFix" result="effect1_dropShadow_176_816"/>
<feBlend mode="normal" in="SourceGraphic" in2="effect1_dropShadow_176_816" result="shape"/>
</filter>
<filter id="filter2_d_176_816" x="7.66316" y="30.964" width="11.4404" height="3.11206" filterUnits="userSpaceOnUse" color-interpolation-filters="sRGB">
<feFlood flood-opacity="0" result="BackgroundImageFix"/>
<feColorMatrix in="SourceAlpha" type="matrix" values="0 0 0 0 0 0 0 0 0 0 0 0 0 0 0 0 0 0 127 0" result="hardAlpha"/>
<feOffset/>
<feComposite in2="hardAlpha" operator="out"/>
<feColorMatrix type="matrix" values="0 0 0 0 0.34902 0 0 0 0 0.341176 0 0 0 0 0.341176 0 0 0 0.25 0"/>
<feBlend mode="normal" in2="BackgroundImageFix" result="effect1_dropShadow_176_816"/>
<feBlend mode="normal" in="SourceGraphic" in2="effect1_dropShadow_176_816" result="shape"/>
</filter>
<filter id="filter3_d_176_816" x="5.41415" y="5.44446" width="4.77644" height="3" filterUnits="userSpaceOnUse" color-interpolation-filters="sRGB">
<feFlood flood-opacity="0" result="BackgroundImageFix"/>
<feColorMatrix in="SourceAlpha" type="matrix" values="0 0 0 0 0 0 0 0 0 0 0 0 0 0 0 0 0 0 127 0" result="hardAlpha"/>
<feOffset/>
<feComposite in2="hardAlpha" operator="out"/>
<feColorMatrix type="matrix" values="0 0 0 0 0.34902 0 0 0 0 0.341176 0 0 0 0 0.341176 0 0 0 0.25 0"/>
<feBlend mode="normal" in2="BackgroundImageFix" result="effect1_dropShadow_176_816"/>
<feBlend mode="normal" in="SourceGraphic" in2="effect1_dropShadow_176_816" result="shape"/>
</filter>
<radialGradient id="paint0_radial_176_816" cx="0" cy="0" r="1" gradientUnits="userSpaceOnUse" gradientTransform="translate(13.3333 20) rotate(90) scale(20 13.3333)">
<stop stop-color="#7A7676"/>
<stop offset="1" stop-color="#CCCCCC"/>
</radialGradient>
<radialGradient id="paint1_radial_176_816" cx="0" cy="0" r="1" gradientUnits="userSpaceOnUse" gradientTransform="translate(18.3333 7.22224) rotate(90) scale(2.77778 5)">
<stop stop-color="#7A7676"/>
<stop offset="1" stop-color="#CCCCCC"/>
</radialGradient>
<radialGradient id="paint2_radial_176_816" cx="0" cy="0" r="1" gradientUnits="userSpaceOnUse" gradientTransform="translate(13.3333 19.4444) rotate(90) scale(7.22222 11.1111)">
<stop stop-color="#7A7676"/>
<stop offset="1" stop-color="#CCCCCC"/>
</radialGradient>
<radialGradient id="paint3_radial_176_816" cx="0" cy="0" r="1" gradientUnits="userSpaceOnUse" gradientTransform="translate(13.3333 32.7778) rotate(90) scale(2.77778 11.1111)">
<stop stop-color="#7A7676"/>
<stop offset="1" stop-color="#CCCCCC"/>
</radialGradient>
<radialGradient id="paint4_radial_176_816" cx="0" cy="0" r="1" gradientUnits="userSpaceOnUse" gradientTransform="translate(7.77778 7.22224) rotate(90) scale(2.77778 5.55556)">
<stop stop-color="#7A7676"/>
<stop offset="1" stop-color="#CCCCCC"/>
</radialGradient>
</defs>
</svg>
