<svg width="20" height="21" viewBox="0 0 20 21" fill="none" xmlns="http://www.w3.org/2000/svg">
<g clip-path="url(#clip0_120_894)">
<path d="M0.806152 20.0142C0.657715 19.8657 0.558757 19.6895 0.509277 19.4854C0.459798 19.2874 0.459798 19.0864 0.509277 18.8823C0.558757 18.6844 0.654622 18.5174 0.796875 18.3813L8.35791 10.8203L0.796875 3.25928C0.654622 3.12321 0.558757 2.95622 0.509277 2.7583C0.459798 2.56038 0.459798 2.35938 0.509277 2.15527C0.558757 1.95117 0.657715 1.7749 0.806152 1.62646C0.95459 1.47803 1.12777 1.37907 1.32568 1.32959C1.52979 1.28011 1.73079 1.28011 1.92871 1.32959C2.12663 1.37907 2.2998 1.47493 2.44824 1.61719L10 9.17822L17.5518 1.62646C17.7002 1.47803 17.8734 1.37907 18.0713 1.32959C18.2692 1.28011 18.4671 1.28011 18.665 1.32959C18.863 1.37907 19.0361 1.47803 19.1846 1.62646C19.3392 1.7749 19.4412 1.95117 19.4907 2.15527C19.5402 2.35319 19.5402 2.55111 19.4907 2.74902C19.4412 2.94694 19.3423 3.12012 19.1938 3.26855L11.6421 10.8203L19.1938 18.3721C19.3423 18.5205 19.4382 18.6906 19.4814 18.8823C19.5309 19.0802 19.5309 19.2782 19.4814 19.4761C19.4382 19.6802 19.3392 19.8595 19.1846 20.0142C19.0361 20.1626 18.863 20.2616 18.665 20.311C18.4671 20.3605 18.2692 20.3605 18.0713 20.311C17.8734 20.2616 17.7002 20.1626 17.5518 20.0142L10 12.4624L2.44824 20.0234C2.2998 20.1657 2.12663 20.2616 1.92871 20.311C1.73079 20.3605 1.53288 20.3605 1.33496 20.311C1.13704 20.2616 0.960775 20.1626 0.806152 20.0142Z" fill="currentColor"/>
</g>
<defs>
<clipPath id="clip0_120_894">
<rect width="20" height="20" fill="white" transform="translate(0 0.5)"/>
</clipPath>
</defs>
</svg>
