<svg width="22" height="22" viewBox="0 0 22 22" fill="none" xmlns="http://www.w3.org/2000/svg">
<g clip-path="url(#clip0_120_899)">
<path d="M8.45801 21.3965C7.89518 21.3965 7.41895 21.1615 7.0293 20.6914L0.859863 13.1118C0.705241 12.9325 0.593913 12.7562 0.525879 12.583C0.457845 12.4036 0.423828 12.2212 0.423828 12.0356C0.423828 11.6213 0.559896 11.2811 0.832031 11.0151C1.11035 10.743 1.46289 10.6069 1.88965 10.6069C2.37207 10.6069 2.77718 10.8141 3.10498 11.2285L8.41162 17.8618L18.8301 1.42236C19.0033 1.14404 19.1888 0.946126 19.3867 0.828613C19.5846 0.7111 19.8289 0.652344 20.1196 0.652344C20.5402 0.652344 20.8866 0.785319 21.1587 1.05127C21.4308 1.31722 21.5669 1.66048 21.5669 2.08105C21.5669 2.23568 21.5391 2.39648 21.4834 2.56348C21.4277 2.73047 21.3381 2.90983 21.2144 3.10156L9.88672 20.6543C9.71973 20.9017 9.51562 21.0872 9.27441 21.2109C9.03939 21.3346 8.76725 21.3965 8.45801 21.3965Z" fill="currentColor"/>
</g>
<defs>
<clipPath id="clip0_120_899">
<rect width="22" height="21" fill="white" transform="translate(0 0.5)"/>
</clipPath>
</defs>
</svg>
