<svg width="24" height="26" viewBox="0 0 24 26" fill="none" xmlns="http://www.w3.org/2000/svg">
<g clip-path="url(#clip0_120_901)">
<path fill-rule="evenodd" clip-rule="evenodd" d="M9.29487 2.8021C10.6555 1.01502 13.3444 1.01502 14.7051 2.8021L14.9645 3.14281C15.2964 3.5787 15.8521 3.78095 16.3865 3.66037L16.8042 3.56612C18.9953 3.07178 21.0551 4.80014 20.9487 7.04376L20.9284 7.4715C20.9025 8.01876 21.1981 8.53086 21.6851 8.78202L22.0656 8.97833C24.0618 10.008 24.5288 12.656 23.0051 14.3064L22.7146 14.621C22.343 15.0236 22.2403 15.6059 22.4518 16.1113L22.6172 16.5063C23.4845 18.5782 22.1401 20.9068 19.9121 21.1917L19.4873 21.246C18.9439 21.3155 18.4909 21.6956 18.3281 22.2187L18.2008 22.6276C17.5334 24.7723 15.0067 25.6919 13.1169 24.478L12.7566 24.2466C12.2956 23.9505 11.7043 23.9505 11.2433 24.2466L10.883 24.478C8.99322 25.6919 6.46652 24.7723 5.7991 22.6276L5.67186 22.2187C5.50906 21.6956 5.05608 21.3155 4.51264 21.246L4.08787 21.1917C1.85987 20.9068 0.515438 18.5782 1.38275 16.5063L1.5481 16.1113C1.75965 15.6059 1.65697 15.0236 1.28533 14.621L0.994846 14.3064C-0.5288 12.656 -0.0618886 10.008 1.93432 8.97833L2.3149 8.78202C2.80181 8.53086 3.09747 8.01876 3.07153 7.4715L3.05125 7.04376C2.94489 4.80014 5.00467 3.07178 7.19573 3.56612L7.61346 3.66037C8.1479 3.78095 8.70356 3.57871 9.03545 3.14281L9.29487 2.8021ZM13.1138 4.01368C12.5535 3.27783 11.4464 3.27783 10.8861 4.01368L10.6267 4.35439C9.82067 5.413 8.4712 5.90417 7.17328 5.61133L6.75556 5.51708C5.85336 5.31353 5.00521 6.02521 5.04901 6.94905L5.06928 7.37679C5.13229 8.70585 4.41425 9.94952 3.23176 10.5595L2.85118 10.7558C2.02921 11.1798 1.83695 12.2701 2.46434 12.9497L2.75482 13.2643C3.65738 14.2419 3.90675 15.6562 3.39299 16.8836L3.22763 17.2786C2.87051 18.1317 3.42409 19.0906 4.34151 19.2078L4.76628 19.2622C6.08608 19.4309 7.18617 20.354 7.58153 21.6244L7.70877 22.0333C7.98359 22.9164 9.02399 23.2951 9.80217 22.7952L10.1624 22.5638C11.2819 21.8447 12.718 21.8447 13.8375 22.5638L14.1978 22.7953C14.976 23.2951 16.0164 22.9164 16.2912 22.0333L16.4184 21.6244C16.8138 20.354 17.9139 19.4309 19.2337 19.2622L19.6584 19.2078C20.5759 19.0906 21.1294 18.1317 20.7723 17.2786L20.607 16.8836C20.0932 15.6562 20.3426 14.2419 21.2451 13.2643L21.5356 12.9497C22.163 12.2701 21.9707 11.1798 21.1488 10.7558L20.7682 10.5595C19.5857 9.94952 18.8677 8.70584 18.9307 7.37679L18.9509 6.94905C18.9947 6.02521 18.1466 5.31353 17.2444 5.51708L16.8267 5.61133C15.5287 5.90417 14.1793 5.413 13.3732 4.35439L13.1138 4.01368Z" fill="black"/>
</g>
<defs>
<clipPath id="clip0_120_901">
<rect width="24" height="25" fill="white" transform="translate(0 0.5)"/>
</clipPath>
</defs>
</svg>
